<svg xmlns="http://www.w3.org/2000/svg" viewBox="0 0 64 64" width="64" height="64">
  <path d="M 32 2 C 34 2 35.5 3.5 36.8 5.5 L 63.5 55.5 C 64.5 57.5 63.5 61.5 61 61.5 L 3 61.5 C 0.5 61.5 -0.5 57.5 0.5 55.5 L 27.2 5.5 C 28.5 3.5 30 2 32 2 Z" fill="#FF392F" />
  <g transform="translate(8.6, 17) scale(2.6)" fill="#1D1D1D">
    <path d="m 6.4055661,8.0244347 c 1.1151869,0.726603 2.2303757,1.453206 3.3455618,2.1798093 0.3276741,0.669171 1.0473391,1.262172 0.9245991,2.042541 0.12219,0.53007 -0.07841,1.072222 -0.495488,1.468498 -0.2319636,0.29458 -0.4639223,0.589161 -0.695884,0.883742 C 8.6467685,14.982399 7.9284968,14.241964 8.1900762,13.552546 8.1628002,13.082275 7.7473408,12.76359 7.3074701,12.544848 6.267955,11.881842 5.2284414,11.218835 4.1889255,10.555829 3.636889,9.9669727 3.2339929,9.2137591 3.3546789,8.4433259 3.1036169,7.7193728 3.5824991,7.0022223 4.1230344,6.4729011 4.3650612,5.9235059 5.3953508,5.6224581 5.7915054,6.20889 6.0528323,6.7950276 6.1756997,7.4269053 6.4055661,8.0244347 Z" />
    <path d="m 10.510545,4.6140836 c 1.115186,0.726603 2.230375,1.4532064 3.345562,2.1798098 0.327677,0.6691702 1.047338,1.262172 0.924599,2.0425409 0.122191,0.5300703 -0.07841,1.0722218 -0.495488,1.4684977 -0.231963,0.294581 -0.463922,0.589161 -0.695885,0.883742 C 12.821304,11.542189 12.018892,10.915228 12.33262,10.232618 12.220122,9.3567517 11.16031,9.0130279 10.460023,8.527032 9.7259165,8.0426915 8.9491397,7.5956569 8.2417359,7.0879707 7.7167187,6.5104615 7.3428699,5.7779115 7.4596621,5.0329756 7.2085997,4.3090221 7.6874823,3.5918713 8.2280168,3.0625497 8.4700439,2.5131516 9.5003425,2.2121096 9.8964886,2.7985512 10.157796,3.3846846 10.280694,4.0165934 10.510545,4.6140836 Z" />
  </g>
</svg>
